<svg width="48" height="49" viewBox="0 0 48 49" fill="none" xmlns="http://www.w3.org/2000/svg">
<g clip-path="url(#clip0_300_3739)">
<path d="M48 23.9167C48 23.2039 47.7169 22.5203 47.2128 22.0163C46.7088 21.5123 46.0253 21.2292 45.3125 21.2292H42.6823L41.2866 16.5171C40.7217 14.6839 39.6301 13.0574 38.1478 11.8398C36.6656 10.6223 34.858 9.86747 32.95 9.66933C32.3291 8.55886 31.4239 7.63368 30.3272 6.98882C29.2305 6.34396 27.9819 6.00267 26.7096 6H26.2904C25.0186 6.00065 23.7699 6.34031 22.6731 6.98401C21.5762 7.6277 20.6708 8.55216 20.05 9.66217C18.1188 9.84539 16.2855 10.5979 14.7825 11.8244C13.2795 13.0508 12.1745 14.6959 11.6077 16.5511L10.2245 21.2292H7.6875C6.97473 21.2292 6.29115 21.5123 5.78715 22.0163C5.28315 22.5203 5 23.2039 5 23.9167C5 24.6294 5.28315 25.313 5.78715 25.817C6.29115 26.321 6.97473 26.6042 7.6875 26.6042H8.6335L7.77887 29.521C6.71407 30.4375 5.90965 31.6185 5.44668 32.9449C4.98371 34.2713 4.87855 35.6964 5.14181 37.0764C5.40506 38.4564 6.02742 39.7427 6.94616 40.8056C7.86491 41.8684 9.04758 42.6703 10.375 43.1305V45.4167C10.375 46.367 10.7525 47.2785 11.4245 47.9505C12.0965 48.6225 13.008 49 13.9583 49C14.9087 49 15.8201 48.6225 16.4921 47.9505C17.1641 47.2785 17.5417 46.367 17.5417 45.4167V43.625H35.4583V45.4167C35.4583 46.367 35.8359 47.2785 36.5079 47.9505C37.1799 48.6225 38.0913 49 39.0417 49C39.992 49 40.9035 48.6225 41.5755 47.9505C42.2475 47.2785 42.625 46.367 42.625 45.4167V43.1305C43.9642 42.6665 45.1559 41.8547 46.0778 40.7782C46.9998 39.7018 47.6189 38.3995 47.8716 37.005C48.1244 35.6104 48.0016 34.1737 47.516 32.8422C47.0304 31.5107 46.1994 30.3323 45.1082 29.4278L44.2733 26.6042H45.3125C46.0253 26.6042 46.7088 26.321 47.2128 25.817C47.7169 25.313 48 24.6294 48 23.9167ZM16.7533 18.1081C17.0337 17.1936 17.6009 16.3936 18.3711 15.8263C19.1413 15.2591 20.0735 14.9548 21.03 14.9583H31.875C32.8263 14.9532 33.7541 15.2532 34.5223 15.8143C35.2904 16.3754 35.8584 17.1681 36.1427 18.0758L38.9324 27.5H13.9727L16.7533 18.1081ZM39.9375 38.25H13.0625C12.3497 38.25 11.6662 37.9669 11.1622 37.4628C10.6581 36.9588 10.375 36.2753 10.375 35.5625C10.375 34.8497 10.6581 34.1662 11.1622 33.6621C11.6662 33.1581 12.3497 32.875 13.0625 32.875H13.9583V33.7708C13.9583 34.4836 14.2415 35.1672 14.7455 35.6712C15.2495 36.1752 15.9331 36.4583 16.6458 36.4583C17.3586 36.4583 18.0422 36.1752 18.5462 35.6712C19.0502 35.1672 19.3333 34.4836 19.3333 33.7708V32.875H33.6667V33.7708C33.6667 34.4836 33.9498 35.1672 34.4538 35.6712C34.9578 36.1752 35.6414 36.4583 36.3542 36.4583C37.0669 36.4583 37.7505 36.1752 38.2545 35.6712C38.7585 35.1672 39.0417 34.4836 39.0417 33.7708V32.875H39.9375C40.6503 32.875 41.3338 33.1581 41.8378 33.6621C42.3419 34.1662 42.625 34.8497 42.625 35.5625C42.625 36.2753 42.3419 36.9588 41.8378 37.4628C41.3338 37.9669 40.6503 38.25 39.9375 38.25Z" fill="#374957"/>
</g>
<g clip-path="url(#clip1_300_3739)">
<path d="M15.4167 1.66667H15V1.25C15 0.918479 14.8683 0.600537 14.6339 0.366116C14.3995 0.131696 14.0815 0 13.75 0V0C13.4185 0 13.1005 0.131696 12.8661 0.366116C12.6317 0.600537 12.5 0.918479 12.5 1.25V1.66667H7.5V1.25C7.5 0.918479 7.3683 0.600537 7.13388 0.366116C6.89946 0.131696 6.58152 0 6.25 0V0C5.91848 0 5.60054 0.131696 5.36612 0.366116C5.1317 0.600537 5 0.918479 5 1.25V1.66667H4.58333C3.36776 1.66667 2.20197 2.14955 1.34243 3.00909C0.482886 3.86864 0 5.03442 0 6.25L0 15.4167C0 16.6322 0.482886 17.798 1.34243 18.6576C2.20197 19.5171 3.36776 20 4.58333 20H15.4167C16.6322 20 17.798 19.5171 18.6576 18.6576C19.5171 17.798 20 16.6322 20 15.4167V6.25C20 5.03442 19.5171 3.86864 18.6576 3.00909C17.798 2.14955 16.6322 1.66667 15.4167 1.66667ZM15.4167 17.5H4.58333C4.0308 17.5 3.5009 17.2805 3.11019 16.8898C2.71949 16.4991 2.5 15.9692 2.5 15.4167V8.33333H17.5V15.4167C17.5 15.9692 17.2805 16.4991 16.8898 16.8898C16.4991 17.2805 15.9692 17.5 15.4167 17.5Z" fill="#374957"/>
</g>
<defs>
<clipPath id="clip0_300_3739">
<rect width="43" height="43" fill="white" transform="translate(5 6)"/>
</clipPath>
<clipPath id="clip1_300_3739">
<rect width="20" height="20" fill="white"/>
</clipPath>
</defs>
</svg>
