<svg width="43" height="43" viewBox="0 0 43 43" fill="none" xmlns="http://www.w3.org/2000/svg">
<g id="fi-br-earnings" clip-path="url(#clip0_1_2786)">
<path id="Vector" d="M9.85421 43H19.7084C20.4211 43 21.1047 42.7169 21.6087 42.2128C22.1127 41.7088 22.3959 41.0253 22.3959 40.3125C22.3959 39.5997 22.1127 38.9162 21.6087 38.4122C21.1047 37.9081 20.4211 37.625 19.7084 37.625H9.85421C9.64754 37.6188 9.44157 37.5978 9.23788 37.5623L42.2045 4.59562C42.7087 4.09146 42.992 3.40766 42.992 2.69466C42.992 1.98167 42.7087 1.29787 42.2045 0.793708C41.7004 0.289542 41.0166 0.00630307 40.3036 0.00630307C39.5906 0.00630307 38.9068 0.289542 38.4026 0.793708L5.43596 33.7604C5.40113 33.5572 5.38078 33.3519 5.37504 33.1458V23.2917C5.37504 22.5789 5.09189 21.8953 4.58789 21.3913C4.08389 20.8873 3.40031 20.6042 2.68754 20.6042C1.97477 20.6042 1.2912 20.8873 0.787194 21.3913C0.28319 21.8953 4.18831e-05 22.5789 4.18831e-05 23.2917V33.1458C0.00336051 35.7583 1.04263 38.2628 2.88993 40.1101C4.73722 41.9574 7.24174 42.9967 9.85421 43V43Z" fill="#374957"/>
<path id="Vector_2" d="M31.3543 23.2915C29.7597 23.2915 28.2009 23.7644 26.875 24.6503C25.5492 25.5362 24.5158 26.7954 23.9055 28.2686C23.2953 29.7418 23.1356 31.3629 23.4467 32.9269C23.7578 34.4909 24.5257 35.9275 25.6533 37.055C26.7808 38.1826 28.2174 38.9505 29.7814 39.2616C31.3454 39.5727 32.9665 39.413 34.4397 38.8028C35.9129 38.1925 37.1721 37.1592 38.058 35.8333C38.944 34.5074 39.4168 32.9486 39.4168 31.354C39.4144 29.2164 38.5642 27.1671 37.0527 25.6556C35.5412 24.1441 33.4919 23.2939 31.3543 23.2915V23.2915ZM31.3543 34.0415C30.8228 34.0415 30.3032 33.8839 29.8612 33.5886C29.4193 33.2933 29.0748 32.8735 28.8714 32.3825C28.668 31.8914 28.6148 31.351 28.7185 30.8297C28.8222 30.3084 29.0781 29.8295 29.454 29.4537C29.8298 29.0778 30.3087 28.8218 30.83 28.7181C31.3513 28.6144 31.8917 28.6677 32.3828 28.8711C32.8739 29.0745 33.2936 29.4189 33.5889 29.8609C33.8842 30.3029 34.0418 30.8225 34.0418 31.354C34.0418 32.0668 33.7587 32.7503 33.2547 33.2544C32.7507 33.7584 32.0671 34.0415 31.3543 34.0415V34.0415Z" fill="#374957"/>
<path id="Vector_3" d="M11.6458 19.7086C13.2404 19.7086 14.7992 19.2358 16.1251 18.3498C17.4509 17.4639 18.4843 16.2047 19.0946 14.7315C19.7048 13.2583 19.8645 11.6372 19.5534 10.0732C19.2423 8.50925 18.4744 7.07265 17.3468 5.94509C16.2193 4.81753 14.7827 4.04965 13.2187 3.73856C11.6547 3.42747 10.0336 3.58713 8.56039 4.19736C7.08716 4.80759 5.82797 5.84098 4.94205 7.16685C4.05613 8.49272 3.58327 10.0515 3.58327 11.6461C3.58565 13.7837 4.43585 15.8331 5.94735 17.3446C7.45884 18.856 9.5082 19.7062 11.6458 19.7086ZM11.6458 8.95863C12.1773 8.95863 12.6969 9.11625 13.1389 9.41156C13.5808 9.70687 13.9253 10.1266 14.1287 10.6177C14.3321 11.1087 14.3853 11.6491 14.2816 12.1704C14.1779 12.6918 13.922 13.1706 13.5461 13.5465C13.1703 13.9223 12.6914 14.1783 12.1701 14.282C11.6488 14.3857 11.1084 14.3325 10.6173 14.1291C10.1262 13.9256 9.70651 13.5812 9.4112 13.1392C9.1159 12.6973 8.95828 12.1777 8.95828 11.6461C8.95828 10.9334 9.24142 10.2498 9.74543 9.74578C10.2494 9.24178 10.933 8.95863 11.6458 8.95863Z" fill="#374957"/>
</g>
<defs>
<clipPath id="clip0_1_2786">
<rect width="43" height="43" fill="white" transform="matrix(-1 0 0 -1 43 43)"/>
</clipPath>
</defs>
</svg>
