<svg width="43" height="43" viewBox="0 0 43 43" fill="none" xmlns="http://www.w3.org/2000/svg">
<g id="fi-br-portrait" clip-path="url(#clip0_1_2778)">
<path id="Vector" d="M33.1458 0H9.85417C7.24155 0.00284547 4.73676 1.04196 2.88936 2.88936C1.04196 4.73676 0.00284547 7.24155 0 9.85417L0 33.1458C0.00284547 35.7584 1.04196 38.2632 2.88936 40.1106C4.73676 41.958 7.24155 42.9972 9.85417 43H33.1458C35.7584 42.9972 38.2632 41.958 40.1106 40.1106C41.958 38.2632 42.9972 35.7584 43 33.1458V9.85417C42.9972 7.24155 41.958 4.73676 40.1106 2.88936C38.2632 1.04196 35.7584 0.00284547 33.1458 0V0ZM37.625 33.1458C37.625 34.3338 37.1531 35.4731 36.3131 36.3131C35.4731 37.1531 34.3338 37.625 33.1458 37.625H32.25V35.8333C32.25 32.9823 31.1174 30.248 29.1014 28.2319C27.0854 26.2159 24.3511 25.0833 21.5 25.0833C18.6489 25.0833 15.9146 26.2159 13.8986 28.2319C11.8826 30.248 10.75 32.9823 10.75 35.8333V37.625H9.85417C8.66622 37.625 7.52692 37.1531 6.68692 36.3131C5.84691 35.4731 5.375 34.3338 5.375 33.1458V9.85417C5.375 8.66622 5.84691 7.52692 6.68692 6.68692C7.52692 5.84691 8.66622 5.375 9.85417 5.375H33.1458C34.3338 5.375 35.4731 5.84691 36.3131 6.68692C37.1531 7.52692 37.625 8.66622 37.625 9.85417V33.1458Z" fill="#374957"/>
<path id="Vector_2" d="M21.4997 21.4994C24.963 21.4994 27.7705 18.6919 27.7705 15.2286C27.7705 11.7653 24.963 8.95776 21.4997 8.95776C18.0364 8.95776 15.2289 11.7653 15.2289 15.2286C15.2289 18.6919 18.0364 21.4994 21.4997 21.4994Z" fill="#374957"/>
</g>
<defs>
<clipPath id="clip0_1_2778">
<rect width="43" height="43" fill="white"/>
</clipPath>
</defs>
</svg>
