<svg width="43" height="43" viewBox="0 0 43 43" fill="none" xmlns="http://www.w3.org/2000/svg">
<g id="Group">
<path id="Vector" d="M42.2138 38.423L33.8913 30.097C40.1186 21.7751 38.4206 9.98055 30.0987 3.75322C21.7769 -2.47411 9.98232 -0.77612 3.75499 7.54577C-2.47234 15.8677 -0.77435 27.6622 7.54754 33.8895C14.2324 38.8918 23.4138 38.8918 30.0987 33.8895L38.4248 42.2156C39.4711 43.2619 41.1675 43.2619 42.2138 42.2156C43.2601 41.1693 43.2601 39.4729 42.2138 38.4266L42.2138 38.423ZM18.8925 32.2825C11.4964 32.2825 5.50077 26.2869 5.50077 18.8908C5.50077 11.4947 11.4964 5.499 18.8925 5.499C26.2886 5.499 32.2843 11.4947 32.2843 18.8908C32.2764 26.2835 26.2854 32.2746 18.8925 32.2825Z" fill="#374957"/>
</g>
</svg>
